<svg viewBox="0 0 220 110" xml:space="preserve" xmlns="http://www.w3.org/2000/svg">
    <path
        d="M117.79 43.85s4.64.06 6.23-3.15c1.58-3.2-2.67-4.03-4.07-3.45-1.39.58-2.16 6.6-2.16 6.6zM73 35.8l-7.87 15.6 7.55-2.06 4.51-11.79C78.22 35.3 73 35.8 73 35.8zM40.98 68.76s-8.32 1.04-11.55 5.27c-3.23 4.22-.25 8.22 3.73 5.98 3.99-2.25 7.82-11.25 7.82-11.25zm4.47-13.24L63.76 19.8s32.41.62 29.5 9.61l-6.34 19.3 15.3-2.95s1.62-14.89 7.02-18.72c5.4-3.84 18.1-5.21 23.28 4.05 5.2 9.26-4.11 22-16.12 23.18l-3.48 19.27c27.4 6.14 40.71-2.25 45.04-21.05 0 0-9.38 3.63-12.27 1.1-2.6-2.26-6.54-10.57.61-11.51l14.28-1.35 3.01-12.45c3.7-2.28 15.66-9.56 14.22-.23l-2.39 10.85 12.7-1.56c5.72-.8 4.15 4.6 1.74 7.26-3.36 3.7-12.16 3.17-16.05 4.9 0 0-5.47 18.16.07 22.48s18.94-3.95 18.94-3.95c8.83-3.54 7 7.13 4.96 11-1.61 3.07-8.9 7-22.5 8.79 0 0-13.17 2.17-16.6-10.87-2.1 3.68-7.44 9.42-16.37 11.25-8.92 1.82-21.87-2.3-31.2-2.68-9.33-.38-20.57 2.28-20.57 2.28-6.29 1.03-12.24-13.49-1.27-16.73l7.64-2.26 2.98-11.97-15.7 2.61-9.23 25.92s-19.44 10.73-15.6-1.03l8.76-21.24-7.56 1.2s-8.14 17.08-15.79 21.26c-3.82 2.1-10.5 3.83-16.35 3.8-5.85-.03-10.36-2.07-11.71-6.87-1.62-5.72 1.65-10.88 4.93-14.8 3.35-4 7.54-6.25 10.87-7.65 6.66-2.8 12.94-4.52 12.94-4.52z"
        fill="white" paint-order="markers fill stroke" />
</svg>